<!--?xml version="1.0" encoding="utf-8"?-->
<!-- Svg Vector Icons : http://www.onlinewebfonts.com/icon -->

<svg version="1.1" xmlns="http://www.w3.org/2000/svg" xmlns:xlink="http://www.w3.org/1999/xlink" x="0px" y="0px" viewBox="0 0 256 256" enable-background="new 0 0 256 256" xml:space="preserve">
<metadata> Svg Vector Icons : http://www.onlinewebfonts.com/icon </metadata>
<g><g><g><path fill="#FFFFFF" data-title="Layer 0" xs="0" d="M120,10.1c-0.9,0.1-3.7,0.4-6.2,0.7c-34,3.9-65.8,23.9-85.3,53.9C19.2,79,13.2,95.6,10.6,114.1c-0.8,5.5-0.8,22.4,0,27.9c3.3,23.8,12.4,44.4,27.3,62l4,4.7l-13,13c-11.6,11.7-13,13.2-13,14.6c0,2.1,1.8,3.9,3.9,3.9c1.4,0,2.8-1.3,14.6-13l13-13l4.7,4c17.6,14.9,38.2,23.9,62,27.3c5.6,0.8,22.4,0.8,28.2,0c18.6-2.6,35.4-8.8,50.4-18.7c29.3-19.4,48-49.4,52.8-84.5c0.8-5.7,0.8-22.6,0-28.2c-3.3-23.8-12.4-44.4-27.3-62l-4-4.7l13-13c11.6-11.7,13-13.2,13-14.6c0-2.1-1.8-3.9-3.9-3.9c-1.4,0-2.8,1.3-14.6,13l-13,13l-4.7-4c-17.4-14.7-38.1-23.9-61.3-27.2C138.9,10.2,122.8,9.7,120,10.1z M144.1,18.5c21.2,3.1,41.6,12.5,57.6,26.6l2,1.8l-78.4,78.4l-78.4,78.4l-3.7-4.4c-10.5-12.5-18.2-27.7-22.3-43.6c-2.6-10.1-3.3-16.2-3.3-27.7c0-7.4,0.2-11.7,0.9-15.9c7.7-51.2,47.4-89,98.9-94.3C123.4,17.2,137.7,17.6,144.1,18.5z M216,60.6c17.9,23.3,25.8,54,21.6,83.5C228,209.8,164.2,251.7,99.3,235c-15.1-3.9-30.4-11.8-42.7-22l-4.4-3.7l78.4-78.4l78.4-78.4l1.8,2C211.9,55.5,214.2,58.3,216,60.6z"/></g></g></g>
</svg>